<svg viewBox="0 0 238 78" xmlns="http://www.w3.org/2000/svg" fill-rule="evenodd" clip-rule="evenodd" stroke-linejoin="round" stroke-miterlimit="2"><path fill="none" d="M0 0h238v78H0z"/><path d="M25.93 22.12a4.378 4.378 0 00-3.13 1.315l-1.11 1.24-1.139-1.27a4.36 4.36 0 00-3.102-1.285H0v32.576c0 4.607 3.619 9.8 10.755 15.438 5.227 4.128 10.529 6.998 10.581 7.027a.746.746 0 00.704.001c.871-.465 21.34-11.512 21.34-22.596V22.12H25.93z" fill="#fff" fill-rule="nonzero"/><path d="M25.93 23.607c-.773 0-1.482.295-2.051.853l-1.081 1.207-1.108 1.238-1.109-1.237-1.108-1.237a2.878 2.878 0 00-2.024-.824H1.488v26.356l20.201-11.606 20.202 11.606V23.607h-15.96z" fill="#007fb0" fill-rule="nonzero"/><path d="M13.85 35.99h-.88v-6.282h-.021l-1.33 1.12-.523-.639 1.989-1.612h.764v7.412zm2.98-5.56c0 .356.114.65.341.88.226.23.525.345.895.345s.668-.115.895-.345c.226-.23.34-.524.34-.88s-.114-.649-.34-.88c-.227-.23-.525-.345-.895-.345s-.669.116-.895.345c-.227.231-.34.524-.34.88m-.252 3.455c0 .217.038.415.115.597.077.181.184.336.32.466a1.52 1.52 0 001.052.413 1.508 1.508 0 001.052-.413 1.38 1.38 0 00.32-.466 1.53 1.53 0 00.115-.597 1.52 1.52 0 00-.115-.596 1.38 1.38 0 00-.32-.467 1.518 1.518 0 00-1.052-.413 1.511 1.511 0 00-1.052.413c-.136.13-.243.285-.32.467a1.51 1.51 0 00-.115.596m-.628-3.497a1.82 1.82 0 01.607-1.403 2.07 2.07 0 01.67-.392c.259-.094.538-.142.838-.142.3 0 .579.048.838.142.258.094.481.225.67.392.188.168.336.37.444.608a1.899 1.899 0 01.08 1.319 1.744 1.744 0 01-.624.869c-.15.112-.32.191-.508.24v.021c.223.05.426.131.608.246.181.116.335.257.46.424.126.168.223.358.294.571.069.213.104.434.104.665 0 .335-.061.637-.183.905-.122.27-.29.498-.503.686a2.177 2.177 0 01-.754.43c-.29.097-.598.146-.926.146-.328 0-.637-.049-.927-.146a2.17 2.17 0 01-.753-.43 2.017 2.017 0 01-.503-.686 2.161 2.161 0 01-.183-.905c0-.23.035-.452.105-.665.07-.213.167-.403.293-.57.125-.168.279-.31.46-.425.182-.115.384-.197.608-.246v-.02a1.464 1.464 0 01-.508-.241 1.745 1.745 0 01-.707-1.393m5.658 4.596l2.795-2.722c.174-.167.328-.323.46-.465.133-.143.243-.284.33-.42a1.6 1.6 0 00.257-.916 1.171 1.171 0 00-.393-.916 1.316 1.316 0 00-.43-.25 1.52 1.52 0 00-.528-.09c-.377 0-.688.109-.932.325a1.491 1.491 0 00-.47.858l-.953-.084c.049-.3.141-.567.277-.8.136-.234.307-.428.513-.582a2.3 2.3 0 01.696-.35c.258-.08.537-.12.838-.12.307 0 .597.043.869.13.272.088.51.215.717.382.206.168.37.377.492.629.122.25.183.54.183.868a2.484 2.484 0 01-.445 1.45c-.136.2-.29.388-.46.566-.172.178-.351.354-.54.529l-2.282 2.146v.02h3.78v.817h-4.774v-1.005zm7.073-4.554c0 .356.113.65.34.88.227.23.525.345.895.345s.668-.115.896-.345c.226-.23.34-.524.34-.88s-.114-.649-.34-.88c-.228-.23-.526-.345-.896-.345s-.668.116-.895.345c-.227.231-.34.524-.34.88m-.251 3.455c0 .217.038.415.115.597.077.181.183.336.319.466a1.52 1.52 0 001.052.413 1.509 1.509 0 001.052-.413c.137-.13.243-.285.32-.466.077-.182.115-.38.115-.597a1.51 1.51 0 00-.115-.596 1.372 1.372 0 00-.32-.467 1.518 1.518 0 00-1.052-.413 1.51 1.51 0 00-1.052.413c-.136.13-.242.285-.32.467a1.51 1.51 0 00-.114.596m-.629-3.497c0-.293.055-.558.163-.795.108-.238.256-.44.445-.608a2.05 2.05 0 01.67-.392 2.43 2.43 0 01.837-.142c.3 0 .58.048.838.142.258.094.481.225.67.392.188.168.336.37.445.608a1.899 1.899 0 01.079 1.319 1.745 1.745 0 01-.624.869c-.15.112-.319.191-.507.24v.021c.223.05.425.131.607.246.181.116.335.257.46.424.126.168.224.358.294.571.07.213.105.434.105.665 0 .335-.062.637-.184.905-.122.27-.29.498-.502.686a2.177 2.177 0 01-.754.43 2.9 2.9 0 01-.927.146c-.328 0-.637-.049-.926-.146a2.17 2.17 0 01-.754-.43 2.017 2.017 0 01-.503-.686 2.161 2.161 0 01-.183-.905c0-.23.035-.452.105-.665.07-.213.167-.403.293-.57.126-.168.279-.31.46-.425.182-.115.385-.197.608-.246v-.02a1.462 1.462 0 01-.508-.241 1.745 1.745 0 01-.707-1.393" fill="#fff" fill-rule="nonzero"/><path fill="#fff" d="M42.189 14.054l-.41-.988-15.4 6.379.409.988zm-4.593-7.247l-.751-.75-11.784 11.79.752.752zm-7.007-4.931l-.987-.408-6.378 15.401.986.409zM22.223 0h-1.068v16.67h1.068zm-2.067 16.868l-6.38-15.4-.986.408 6.379 15.401zm-1.834.975L6.535 6.056l-.756.756 11.787 11.787zm-1.321 1.602l-15.4-6.379-.41.988 15.4 6.379z"/><path d="M13.82 65.405l.222 1.666 1.653-.304s.018-1.623.226-2.282c-.562.401-2.101.92-2.101.92m-2.963-13.589l-1.516.726.8 1.478s1.549-.484 2.24-.49c-.556-.41-1.524-1.714-1.524-1.714m9.658-7.016l1.159-1.216 1.159 1.217s-.94 1.323-1.16 1.979c-.218-.656-1.158-1.98-1.158-1.98m12.008 7.016l1.515.726-.8 1.479s-1.549-.485-2.24-.491c.556-.41 1.525-1.714 1.525-1.714m-2.964 13.589l-.222 1.665-1.653-.303s-.018-1.624-.226-2.282c.563.402 2.101.92 2.101.92M22.39 51.973a4.653 4.653 0 013.452 2.505l3.252-.913s1.27-.32 1.848-1.377c.593-1.085.19-2.021-.53-2.64-.716-.616-2.092-.769-3.243-.526l-.004.005.004-.006c-.125-1.17-.696-2.43-1.504-2.921-.81-.493-1.825-.588-2.673.312-.826.876-.738 2.183-.738 2.183l.136 3.378zm-8.104 1.592l3.25.912a4.653 4.653 0 013.453-2.504l.137-3.378s.087-1.307-.739-2.183c-.848-.9-1.863-.805-2.673-.313-.808.492-1.379 1.752-1.504 2.922l.004.006-.004-.005c-1.151-.243-2.527-.09-3.244.527-.719.618-1.122 1.554-.529 2.64.579 1.055 1.849 1.376 1.849 1.376m9.541 7.137c-.64.332-1.367.52-2.137.52a4.632 4.632 0 01-2.13-.516l-2.092 2.647s-.84 1.006-.686 2.2c.157 1.228 1.034 1.748 1.98 1.825.941.078 2.144-.607 2.933-1.48v-.007.007c.789.873 1.992 1.558 2.934 1.48.945-.077 1.822-.597 1.98-1.824.152-1.195-.686-2.2-.686-2.2l-2.096-2.652zm7.926-6.032c-1.089-.514-2.304-.027-2.304-.027l-3.17 1.173a4.638 4.638 0 01-1.315 4.06l1.872 2.808s.697 1.109 1.88 1.332c1.216.23 1.981-.444 2.347-1.319.365-.872.086-2.228-.5-3.247l-.007-.003.006.002c1.075-.48 2.097-1.413 2.314-2.333.218-.923-.005-1.916-1.123-2.445m-14.715 1.901c0-.258.022-.51.063-.756l-3.17-1.173s-1.216-.488-2.305.028c-1.118.529-1.342 1.523-1.123 2.446.217.92 1.24 1.852 2.314 2.332l.006-.002-.006.003c-.586 1.02-.866 2.375-.5 3.247.365.875 1.13 1.548 2.345 1.32 1.184-.225 1.881-1.333 1.881-1.333l1.872-2.81a4.637 4.637 0 01-1.377-3.302" fill="#be1622" fill-rule="nonzero"/><path d="M18.014 56.572a3.676 3.676 0 117.351 0 3.676 3.676 0 01-7.351 0" fill="#be1622" fill-rule="nonzero"/><path d="M63.11 70.691c0 .619-.094 1.189-.28 1.71-.187.52-.464.971-.833 1.354a3.814 3.814 0 01-1.378.9c-.55.216-1.183.323-1.9.323-.727 0-1.366-.107-1.915-.324a3.814 3.814 0 01-1.378-.899 3.76 3.76 0 01-.832-1.355 5.02 5.02 0 01-.28-1.709v-6.408h2.298v6.32c0 .324.052.623.155.899.103.275.248.513.435.714.186.202.41.359.67.472.26.112.542.17.847.17.305 0 .584-.058.84-.17.255-.113.476-.27.663-.472.186-.201.331-.44.434-.714a2.55 2.55 0 00.155-.9v-6.32h2.298v6.41zm8.777-3.698a2.26 2.26 0 00-.832-.633 2.764 2.764 0 00-1.142-.221 2.866 2.866 0 00-2.158.95c-.27.3-.482.656-.634 1.068-.152.413-.228.86-.228 1.34 0 .492.076.942.228 1.349.152.408.361.762.626 1.06.265.3.577.534.936.7.358.167.744.25 1.156.25.472 0 .889-.097 1.252-.294a2.49 2.49 0 00.9-.824l1.915 1.428a3.984 3.984 0 01-1.68 1.37 5.2 5.2 0 01-2.092.442 6.424 6.424 0 01-2.254-.383 5.153 5.153 0 01-1.783-1.098 4.971 4.971 0 01-1.171-1.73c-.28-.678-.42-1.434-.42-2.27 0-.834.14-1.59.42-2.268a4.98 4.98 0 011.17-1.731A5.167 5.167 0 0167.88 64.4a6.424 6.424 0 012.254-.383c.294 0 .601.027.92.081.32.055.634.14.943.258.31.118.607.275.892.471.285.197.54.438.766.723l-1.768 1.443zm3.087-2.711h2.298v8.31h4.258v2.121h-6.556v-10.43zm11.584 7.293c-.168 0-.376.008-.626.022a3.217 3.217 0 00-.722.125 1.606 1.606 0 00-.59.31c-.162.138-.243.329-.243.574 0 .266.113.462.34.59.225.128.46.191.706.191.216 0 .425-.03.626-.088a1.85 1.85 0 00.538-.25 1.23 1.23 0 00.376-.413c.093-.167.14-.363.14-.59v-.471h-.545zm.545 2.24h-.03a2.075 2.075 0 01-.98.825c-.407.167-.836.25-1.288.25-.334 0-.656-.047-.966-.14a2.424 2.424 0 01-.817-.42 2.025 2.025 0 01-.56-.692 2.114 2.114 0 01-.206-.958c0-.413.076-.76.228-1.046.152-.285.358-.52.619-.707.26-.187.557-.332.891-.435a6.53 6.53 0 011.039-.228 9.986 9.986 0 011.075-.089c.359-.01.69-.014.995-.014 0-.393-.14-.705-.42-.936a1.517 1.517 0 00-.995-.346c-.363 0-.694.076-.994.229a2.72 2.72 0 00-.803.626l-1.178-1.209c.412-.383.893-.67 1.444-.861a5.157 5.157 0 011.708-.288c.649 0 1.181.082 1.6.244.416.161.75.4 1 .714.25.315.425.7.524 1.157.098.456.147.984.147 1.583v3.64h-2.033v-.9zm3.546-6.262h2.121v.972h.03c.068-.137.167-.275.295-.412.127-.138.28-.26.456-.368a2.592 2.592 0 011.341-.37c.56 0 1.012.087 1.356.26.343.171.61.41.803.714.19.304.32.663.39 1.075.069.413.103.86.103 1.34v3.95h-2.21v-3.507c0-.207-.008-.42-.022-.64a2.038 2.038 0 00-.133-.612 1.06 1.06 0 00-.338-.457c-.153-.118-.371-.177-.657-.177-.284 0-.515.052-.692.155-.177.103-.312.24-.405.412a1.677 1.677 0 00-.184.582 4.93 4.93 0 00-.044.678v3.565h-2.21v-7.16zM66.79 31.926c0 .934-.16 1.776-.481 2.528a5.676 5.676 0 01-1.313 1.915 5.785 5.785 0 01-1.97 1.215 6.988 6.988 0 01-2.474.427c-.89 0-1.715-.142-2.473-.427a5.895 5.895 0 01-1.98-1.215 5.455 5.455 0 01-1.314-1.915c-.314-.752-.47-1.594-.47-2.528V22.12h2.757v9.718c0 .38.058.777.175 1.193.117.416.31.8.58 1.149.27.35.627.639 1.073.865.445.226.996.34 1.652.34.657 0 1.208-.114 1.653-.34a3.108 3.108 0 001.073-.865c.269-.35.463-.733.58-1.149a4.44 4.44 0 00.175-1.193V22.12h2.758v9.806zm2.876-4.816h2.495v1.685h.044c.248-.524.628-.98 1.138-1.368.512-.386 1.204-.58 2.08-.58.7 0 1.295.117 1.784.35.488.234.887.541 1.193.92a3.5 3.5 0 01.657 1.313c.13.497.196 1.015.196 1.555v6.632h-2.626v-5.32c0-.291-.015-.615-.044-.973a3.513 3.513 0 00-.23-1.007 1.885 1.885 0 00-.58-.788c-.262-.211-.62-.317-1.072-.317-.438 0-.807.073-1.106.218a2.129 2.129 0 00-.744.592c-.197.248-.34.532-.427.853a3.817 3.817 0 00-.13 1.007v5.735h-2.628V27.11zm12.354 0h2.627v10.507H82.02V27.111zm-.372-3.567c0-.423.157-.791.47-1.106.314-.313.712-.47 1.194-.47.481 0 .886.15 1.214.449.329.299.493.674.493 1.127 0 .452-.164.828-.493 1.127-.328.3-.733.449-1.214.449-.482 0-.88-.157-1.193-.47a1.512 1.512 0 01-.471-1.106m4.492 3.567h2.867l2.801 7.355h.045l2.823-7.355h2.692l-4.137 10.507H90.43L86.14 27.11zm19.71 4.203c-.015-.773-.255-1.383-.722-1.828-.467-.445-1.116-.667-1.948-.667-.788 0-1.412.226-1.872.678-.46.452-.74 1.058-.842 1.817h5.384zm-5.384 1.97c.087.788.393 1.4.919 1.838.525.438 1.16.657 1.905.657.656 0 1.207-.135 1.652-.405.445-.27.835-.609 1.171-1.018l1.883 1.423c-.614.76-1.3 1.3-2.058 1.62a6.065 6.065 0 01-2.386.481 6.311 6.311 0 01-2.233-.394 5.347 5.347 0 01-1.816-1.116 5.292 5.292 0 01-1.215-1.74c-.3-.678-.449-1.434-.449-2.266 0-.831.15-1.587.449-2.265a5.292 5.292 0 011.215-1.74 5.356 5.356 0 011.816-1.117 6.311 6.311 0 012.233-.393c.73 0 1.397.128 2.002.383a4.287 4.287 0 011.554 1.105c.43.482.767 1.076 1.007 1.784.241.708.362 1.521.362 2.44v.722h-8.011zm10.276-6.173h2.627v1.664h.044a3.296 3.296 0 011.247-1.423c.54-.335 1.16-.503 1.86-.503.16 0 .318.014.471.043.153.03.31.066.471.11v2.539a7.528 7.528 0 00-.646-.142 3.695 3.695 0 00-.624-.055c-.613 0-1.105.113-1.477.34-.372.225-.657.484-.854.776a2.592 2.592 0 00-.394.876c-.066.292-.098.51-.098.656v5.626h-2.627V27.11zm14.234 2.911c-.511-.715-1.196-1.072-2.058-1.072-.35 0-.693.088-1.028.262-.336.175-.504.46-.504.854 0 .321.139.555.416.7.277.147.628.27 1.051.373.423.102.879.208 1.368.317.489.11.945.278 1.368.503a3.02 3.02 0 011.051.93c.277.395.415.935.415 1.62 0 .628-.134 1.158-.404 1.587a3.16 3.16 0 01-1.052 1.04 4.65 4.65 0 01-1.454.57c-.54.116-1.08.175-1.62.175a6.965 6.965 0 01-2.255-.35c-.686-.234-1.299-.657-1.839-1.27l1.752-1.642c.335.38.696.69 1.083.93.387.241.857.361 1.412.361.19 0 .386-.021.59-.065.205-.044.395-.117.57-.22a1.35 1.35 0 00.427-.382.895.895 0 00.164-.536c0-.365-.14-.635-.416-.81a3.697 3.697 0 00-1.05-.427c-.424-.11-.88-.212-1.369-.307a5.27 5.27 0 01-1.368-.46 2.865 2.865 0 01-1.05-.886c-.278-.379-.416-.904-.416-1.575 0-.584.12-1.091.361-1.522.241-.43.558-.784.952-1.061a4.117 4.117 0 011.357-.613 6.204 6.204 0 013.634.164c.685.24 1.24.653 1.663 1.236l-1.75 1.576zm4.104-2.911h2.627v10.507h-2.627V27.111zm-.372-3.567c0-.423.156-.791.47-1.106.314-.313.711-.47 1.193-.47.482 0 .887.15 1.215.449.329.299.493.674.493 1.127 0 .452-.164.828-.493 1.127-.328.3-.733.449-1.215.449-.482 0-.88-.157-1.193-.47a1.511 1.511 0 01-.47-1.106m4.583 5.8V27.11h2.167v-3.042h2.627v3.042h2.889v2.233h-2.89v4.596c0 .526.1.942.296 1.248.198.306.587.46 1.172.46.233 0 .488-.026.766-.077.276-.05.495-.135.656-.252v2.211a3.386 3.386 0 01-1.018.274c-.401.05-.755.076-1.062.076-.7 0-1.273-.076-1.717-.23-.446-.153-.796-.386-1.051-.7-.255-.313-.43-.704-.525-1.17a8.159 8.159 0 01-.143-1.62v-4.816h-2.167zm8.714-2.233h2.89l2.933 7.29h.043l2.627-7.29h2.736l-4.969 12.761c-.19.496-.398.93-.623 1.303a3.749 3.749 0 01-.8.94 3.013 3.013 0 01-1.083.57c-.416.124-.916.186-1.5.186a7.786 7.786 0 01-2.013-.262l.328-2.364c.204.073.42.134.646.186.226.05.456.076.69.076.32 0 .59-.03.809-.087.219-.06.405-.15.558-.274.153-.124.28-.284.383-.481.102-.198.212-.435.33-.712l.502-1.248-4.487-10.594zm19.721 5.253c0 .41.07.803.208 1.183.138.379.343.714.613 1.006.27.292.594.526.974.7.379.176.81.264 1.291.264.482 0 .912-.088 1.292-.263a2.97 2.97 0 001.587-1.707 3.439 3.439 0 00-.001-2.365 2.973 2.973 0 00-1.586-1.707 3.043 3.043 0 00-1.292-.263c-.48 0-.912.088-1.291.263a2.971 2.971 0 00-1.587 1.707c-.139.38-.208.774-.208 1.182m-2.627 0c0-.831.15-1.587.45-2.265a5.289 5.289 0 011.214-1.74 5.352 5.352 0 011.817-1.116 6.3 6.3 0 012.232-.395 6.3 6.3 0 012.233.395c.7.262 1.306.634 1.817 1.116.51.481.916 1.061 1.214 1.74.3.678.45 1.434.45 2.265 0 .832-.15 1.588-.45 2.266a5.3 5.3 0 01-1.214 1.74 5.347 5.347 0 01-1.817 1.116 6.31 6.31 0 01-2.233.394 6.311 6.311 0 01-2.232-.394 5.352 5.352 0 01-1.817-1.116 5.292 5.292 0 01-1.215-1.74c-.3-.678-.449-1.434-.449-2.266m14.576-3.02h-2.167V27.11h2.167v-1.488c0-.73.051-1.39.153-1.981.102-.591.296-1.098.58-1.521a2.735 2.735 0 011.193-.975c.511-.225 1.174-.338 1.992-.338.598 0 1.153.05 1.664.153l-.176 2.232a9.087 9.087 0 00-.547-.11 3.392 3.392 0 00-.547-.043c-.364 0-.657.058-.875.175a1.34 1.34 0 00-.515.47 1.708 1.708 0 00-.24.69 6.01 6.01 0 00-.055.832v1.904h2.43v2.233h-2.43v8.274h-2.627v-8.274zM65.018 46.799c-.57-.613-1.12-1.022-1.653-1.226a4.469 4.469 0 00-1.609-.306c-.803 0-1.528.142-2.178.426a4.986 4.986 0 00-1.674 1.182 5.364 5.364 0 00-1.084 1.762 6.056 6.056 0 00-.383 2.168c0 .831.128 1.597.383 2.298a5.37 5.37 0 001.084 1.816 5.06 5.06 0 001.674 1.205c.65.291 1.375.437 2.178.437.627 0 1.237-.15 1.828-.449.591-.298 1.141-.777 1.653-1.433l2.276 1.62c-.7.963-1.554 1.663-2.56 2.1a7.982 7.982 0 01-3.219.657c-1.196 0-2.295-.193-3.294-.58a7.506 7.506 0 01-2.583-1.641 7.543 7.543 0 01-1.696-2.55c-.409-.992-.613-2.094-.613-3.305 0-1.24.204-2.368.613-3.382.408-1.014.974-1.879 1.696-2.594a7.438 7.438 0 012.583-1.653c1-.386 2.098-.58 3.294-.58 1.05 0 2.025.186 2.923.559.897.372 1.732 1.003 2.506 1.893l-2.145 1.576zm11.432 5.559c-.015-.773-.256-1.382-.722-1.828-.467-.444-1.117-.667-1.948-.667-.788 0-1.413.227-1.872.679-.46.452-.74 1.058-.843 1.816h5.385zm-5.385 1.97c.088.788.394 1.401.92 1.839.525.437 1.16.657 1.904.657.657 0 1.207-.135 1.653-.405a4.58 4.58 0 001.17-1.018l1.883 1.423c-.613.76-1.299 1.3-2.057 1.62-.76.32-1.554.481-2.386.481a6.298 6.298 0 01-2.233-.394 5.345 5.345 0 01-1.816-1.116 5.286 5.286 0 01-1.216-1.74c-.3-.68-.448-1.434-.448-2.266 0-.831.149-1.587.448-2.265a5.283 5.283 0 011.216-1.74 5.353 5.353 0 011.816-1.117 6.298 6.298 0 012.233-.394c.729 0 1.397.128 2.002.383a4.3 4.3 0 011.554 1.106c.43.48.767 1.076 1.007 1.783.241.709.361 1.522.361 2.441v.722h-8.01zm10.277-6.172h2.495v1.685h.044a3.687 3.687 0 011.138-1.368c.51-.386 1.204-.58 2.08-.58.7 0 1.294.117 1.783.35.49.234.887.54 1.193.92.307.38.526.817.657 1.313a6.06 6.06 0 01.197 1.554v6.632h-2.627v-5.319c0-.292-.014-.616-.043-.973a3.513 3.513 0 00-.23-1.007 1.882 1.882 0 00-.58-.788c-.263-.212-.62-.318-1.073-.318-.437 0-.807.073-1.105.219a2.13 2.13 0 00-.745.591 2.364 2.364 0 00-.426.854 3.83 3.83 0 00-.131 1.007v5.734h-2.627V48.156zm11.082 2.233v-2.233h2.167v-3.043h2.626v3.043h2.89v2.233h-2.89v4.596c0 .525.099.941.296 1.248.197.306.587.46 1.171.46.234 0 .488-.026.766-.077.277-.051.496-.135.656-.251v2.21a3.374 3.374 0 01-1.017.274c-.402.05-.755.076-1.062.076-.7 0-1.273-.076-1.718-.23-.445-.153-.795-.386-1.05-.7-.256-.314-.431-.704-.526-1.171a8.191 8.191 0 01-.142-1.62V50.39h-2.167zm9.714-2.233h2.626v1.664h.045a3.298 3.298 0 011.247-1.423c.54-.336 1.16-.504 1.86-.504.16 0 .318.015.471.044.153.03.31.065.471.11v2.539a7.723 7.723 0 00-.646-.143 3.695 3.695 0 00-.624-.055c-.613 0-1.105.114-1.477.34-.372.226-.657.485-.854.777a2.582 2.582 0 00-.394.875 3.332 3.332 0 00-.099.657v5.625h-2.626V48.156zm14.732 5.8h-.548c-.365 0-.774.015-1.226.044-.453.03-.879.099-1.28.208-.402.11-.741.27-1.019.482-.277.211-.415.507-.415.886 0 .248.055.457.164.624.11.168.251.31.427.427.175.116.372.2.591.251.218.051.437.077.657.077.904 0 1.572-.215 2.003-.646.43-.43.645-1.018.645-1.761v-.592zm.152 3.262h-.065c-.38.598-.862 1.032-1.445 1.302a4.532 4.532 0 01-1.926.405c-.482 0-.952-.066-1.412-.197a3.801 3.801 0 01-1.226-.591 3.015 3.015 0 01-.864-.985c-.219-.394-.329-.854-.329-1.38 0-.568.102-1.053.307-1.455a3 3 0 01.82-1.007c.343-.27.741-.484 1.194-.645a8.15 8.15 0 011.411-.361c.49-.08.982-.132 1.478-.153a30.2 30.2 0 011.4-.033h.657v-.285c0-.656-.226-1.15-.678-1.477-.453-.329-1.029-.493-1.73-.493-.554 0-1.072.099-1.554.296a3.949 3.949 0 00-1.247.799l-1.38-1.38a5.093 5.093 0 012.048-1.291 7.538 7.538 0 012.418-.394c.744 0 1.372.084 1.883.252.51.168.933.383 1.27.646.335.262.593.565.776.908.183.343.314.69.394 1.04.08.35.128.69.143 1.018.014.328.021.616.021.864v6.041h-2.364v-1.444z" fill="#fff" fill-rule="nonzero"/><path fill="#fff" d="M122.118 42.114h2.626v16.549h-2.626z"/><path d="M134.484 43.165h2.758v13.002h6.589v2.495h-9.347V43.165zm17.677 10.791h-.547c-.365 0-.774.015-1.226.044-.453.03-.879.099-1.28.208-.402.11-.741.27-1.019.482-.277.211-.415.507-.415.886 0 .248.055.457.164.624.11.168.251.31.427.427.175.116.372.2.591.251.218.051.438.077.657.077.904 0 1.572-.215 2.003-.646.43-.43.645-1.018.645-1.761v-.592zm.153 3.262h-.065c-.38.598-.862 1.032-1.445 1.302a4.534 4.534 0 01-1.926.405c-.482 0-.952-.066-1.412-.197a3.806 3.806 0 01-1.226-.591 3.02 3.02 0 01-.864-.985c-.219-.394-.329-.854-.329-1.38 0-.568.102-1.053.307-1.455.204-.4.478-.736.821-1.007.342-.27.74-.484 1.193-.645a8.15 8.15 0 011.411-.361c.49-.08.982-.132 1.478-.153a30.2 30.2 0 011.4-.033h.657v-.285c0-.656-.226-1.15-.678-1.477-.453-.329-1.029-.493-1.73-.493a4.061 4.061 0 00-2.801 1.095l-1.38-1.38a5.093 5.093 0 012.048-1.291 7.538 7.538 0 012.418-.394c.744 0 1.372.084 1.882.252.511.168.935.383 1.27.646.336.262.594.565.777.908.183.343.314.69.394 1.04.08.35.128.69.143 1.018.014.328.021.616.021.864v6.041h-2.364v-1.444zm5.072-9.062h2.495v1.685h.044a3.687 3.687 0 011.138-1.368c.51-.386 1.204-.58 2.08-.58.7 0 1.294.117 1.784.35.489.234.886.54 1.193.92a3.5 3.5 0 01.657 1.313 6.11 6.11 0 01.196 1.554v6.632h-2.626v-5.319c0-.292-.016-.616-.044-.973a3.53 3.53 0 00-.23-1.007 1.882 1.882 0 00-.58-.788c-.263-.212-.62-.318-1.073-.318-.437 0-.806.073-1.105.219-.3.146-.547.343-.744.591a2.34 2.34 0 00-.427.854 3.814 3.814 0 00-.131 1.007v5.734h-2.627V48.156zm19.478 3.152a4.193 4.193 0 00-.963-.766 2.07 2.07 0 00-1.029-.285c-.481 0-.912.087-1.291.263-.38.175-.705.409-.975.7a2.96 2.96 0 00-.612 1.007 3.39 3.39 0 00-.208 1.182c0 .409.069.802.208 1.182.138.38.342.715.612 1.007.27.292.595.525.975.7.379.175.81.263 1.291.263a2.59 2.59 0 001.138-.252c.35-.167.65-.412.898-.733l1.75 1.882c-.262.263-.565.49-.908.679a6.17 6.17 0 01-1.04.46c-.35.116-.685.2-1.006.252-.321.05-.598.076-.832.076a6.29 6.29 0 01-2.232-.394 5.355 5.355 0 01-1.818-1.117 5.297 5.297 0 01-1.214-1.74c-.3-.678-.449-1.433-.449-2.265 0-.832.15-1.587.449-2.265a5.296 5.296 0 011.214-1.74 5.354 5.354 0 011.818-1.117 6.298 6.298 0 012.232-.394c.67 0 1.347.128 2.025.383.678.256 1.273.66 1.783 1.215l-1.816 1.817zm9.9 2.648h-.547c-.365 0-.774.015-1.226.044-.453.03-.879.099-1.28.208-.402.11-.741.27-1.019.482-.277.211-.415.507-.415.886 0 .248.055.457.164.624.11.168.251.31.427.427.175.116.372.2.591.251.218.051.438.077.657.077.904 0 1.572-.215 2.003-.646.43-.43.645-1.018.645-1.761v-.592zm.153 3.262h-.065c-.38.598-.862 1.032-1.445 1.302a4.534 4.534 0 01-1.926.405c-.482 0-.952-.066-1.412-.197a3.806 3.806 0 01-1.226-.591 3.02 3.02 0 01-.864-.985c-.219-.394-.329-.854-.329-1.38 0-.568.103-1.053.307-1.455.204-.4.478-.736.821-1.007.342-.27.74-.484 1.193-.645.452-.16.922-.281 1.411-.361.49-.08.982-.132 1.478-.153a30.2 30.2 0 011.4-.033h.657v-.285c0-.656-.226-1.15-.678-1.477-.453-.329-1.029-.493-1.73-.493a4.061 4.061 0 00-2.801 1.095l-1.38-1.38a5.093 5.093 0 012.048-1.291 7.538 7.538 0 012.418-.394c.744 0 1.372.084 1.882.252.511.168.935.383 1.27.646.336.262.594.565.777.908.183.343.314.69.394 1.04.08.35.128.69.143 1.018.014.328.021.616.021.864v6.041h-2.364v-1.444zm10.73-6.151c-.511-.715-1.197-1.073-2.058-1.073-.35 0-.693.088-1.028.263-.336.175-.504.46-.504.854 0 .321.139.554.416.7.277.146.628.27 1.05.372.423.103.88.208 1.369.318.489.109.945.277 1.368.503.423.227.773.537 1.05.93.278.394.416.935.416 1.62 0 .628-.135 1.157-.405 1.587-.27.43-.62.777-1.05 1.04-.43.262-.916.452-1.456.569-.54.116-1.08.175-1.62.175a6.973 6.973 0 01-2.254-.35c-.687-.233-1.299-.657-1.839-1.27l1.751-1.641c.336.38.697.69 1.084.93.387.241.857.361 1.412.361.19 0 .386-.022.59-.066.205-.043.394-.116.57-.218.175-.102.317-.23.427-.384a.897.897 0 00.164-.536c0-.364-.14-.634-.416-.81a3.744 3.744 0 00-1.05-.427c-.425-.109-.88-.21-1.369-.306a5.264 5.264 0 01-1.368-.46 2.87 2.87 0 01-1.05-.886c-.278-.38-.416-.905-.416-1.576 0-.584.12-1.09.361-1.521.24-.43.558-.785.952-1.062a4.133 4.133 0 011.357-.613 6.223 6.223 0 011.554-.197c.7 0 1.393.12 2.08.361.685.241 1.24.654 1.663 1.237l-1.75 1.576zm6.739-1.445h.044c.204-.438.565-.835 1.083-1.193.518-.357 1.186-.536 2.004-.536.7 0 1.294.117 1.783.35.489.234.887.54 1.193.92a3.5 3.5 0 01.657 1.313c.13.497.197 1.014.197 1.554v6.632h-2.627v-5.32c0-.29-.015-.615-.044-.972a3.513 3.513 0 00-.23-1.007 1.889 1.889 0 00-.58-.788c-.262-.212-.62-.318-1.072-.318-.438 0-.807.073-1.105.219-.3.146-.548.343-.745.591a2.348 2.348 0 00-.426.854 3.794 3.794 0 00-.132 1.007v5.734h-2.627V42.114h2.627v7.508zm9.727-1.466h2.627v10.506h-2.627V48.156zm-.372-3.568c0-.423.157-.791.47-1.105.314-.314.712-.471 1.193-.471.482 0 .888.15 1.215.449.329.299.493.675.493 1.127 0 .453-.164.828-.493 1.127-.327.3-.733.449-1.215.449-.481 0-.88-.156-1.192-.47a1.51 1.51 0 01-.471-1.106m5.831 3.568h2.627v1.664h.044a3.302 3.302 0 011.247-1.423c.54-.336 1.16-.504 1.86-.504.16 0 .318.015.472.044.152.03.31.065.47.11v2.539a7.636 7.636 0 00-.646-.143 3.695 3.695 0 00-.624-.055c-.613 0-1.105.114-1.477.34-.372.226-.657.485-.854.777a2.58 2.58 0 00-.394.875 3.294 3.294 0 00-.098.657v5.625h-2.627V48.156zm15.801 4.202c-.014-.773-.256-1.382-.722-1.828-.467-.444-1.117-.667-1.948-.667-.788 0-1.412.227-1.872.679-.46.452-.741 1.058-.843 1.816h5.385zm-5.385 1.97c.088.788.394 1.401.92 1.839.525.437 1.16.657 1.904.657.657 0 1.208-.135 1.653-.405a4.58 4.58 0 001.17-1.018l1.883 1.423c-.613.76-1.299 1.3-2.057 1.62a6.065 6.065 0 01-2.386.481 6.301 6.301 0 01-2.233-.394 5.357 5.357 0 01-1.817-1.116 5.292 5.292 0 01-1.214-1.74c-.3-.68-.45-1.434-.45-2.266 0-.831.15-1.587.45-2.265a5.289 5.289 0 011.214-1.74 5.365 5.365 0 011.817-1.117 6.301 6.301 0 012.233-.394c.73 0 1.397.128 2.003.383a4.296 4.296 0 011.553 1.106c.43.48.767 1.076 1.007 1.783.241.709.362 1.522.362 2.441v.722h-8.012z" fill="#fff" fill-rule="nonzero"/></svg>